<?xml version="1.0" encoding="utf-8"?>
<!-- Generator: Adobe Illustrator 16.0.0, SVG Export Plug-In . SVG Version: 6.00 Build 0)  -->
<!DOCTYPE svg PUBLIC "-//W3C//DTD SVG 1.1//EN" "http://www.w3.org/Graphics/SVG/1.1/DTD/svg11.dtd">
<svg version="1.1" id="Layer_1" xmlns="http://www.w3.org/2000/svg" xmlns:xlink="http://www.w3.org/1999/xlink" x="0px" y="0px"
	 width="350px" height="12px" viewBox="-24.999 -1 350 12" enable-background="new -24.999 -1 350 12" xml:space="preserve">
<rect x="-24.999" y="-0.666" fill="#DCE3EC" width="350" height="11.666"/>
<rect x="-20.485" y="2.167" fill="#63789C" width="10.188" height="6"/>
<rect x="-6.109" y="2.167" fill="#63789C" width="10.188" height="6"/>
<rect x="8.268" y="2.167" fill="#63789C" width="10.188" height="6"/>
<rect x="22.645" y="2.167" fill="#63789C" width="10.188" height="6"/>
<rect x="37.021" y="2.167" fill="#63789C" width="10.188" height="6"/>
<rect x="51.398" y="2.167" fill="#63789C" width="10.188" height="6"/>
<rect x="65.774" y="2.167" fill="#63789C" width="10.188" height="6"/>
<rect x="80.151" y="2.167" fill="#63789C" width="10.188" height="6"/>
<rect x="94.527" y="2.167" fill="#63789C" width="10.188" height="6"/>
<rect x="108.904" y="2.167" fill="#63789C" width="10.188" height="6"/>
<rect x="123.281" y="2.167" fill="#63789C" width="10.188" height="6"/>
<rect x="137.657" y="2.167" fill="#63789C" width="10.188" height="6"/>
<rect x="152.033" y="2.167" fill="#63789C" width="10.189" height="6"/>
<rect x="166.411" y="2.167" fill="#63789C" width="10.188" height="6"/>
<rect x="180.787" y="2.167" fill="#63789C" width="10.188" height="6"/>
<rect x="195.163" y="2.167" fill="#63789C" width="10.188" height="6"/>
<rect x="209.54" y="2.167" fill="#63789C" width="10.188" height="6"/>
<rect x="223.916" y="2.167" fill="#63789C" width="10.189" height="6"/>
<rect x="238.293" y="2.167" fill="#63789C" width="10.188" height="6"/>
<rect x="252.67" y="2.167" fill="#63789C" width="10.188" height="6"/>
<rect x="267.046" y="2.167" fill="#63789C" width="10.188" height="6"/>
<rect x="281.423" y="2.167" fill="#63789C" width="10.188" height="6"/>
<rect x="295.799" y="2.167" fill="#63789C" width="10.188" height="6"/>
<rect x="310.176" y="2.167" fill="#63789C" width="10.188" height="6"/>
</svg>
